<svg xmlns="http://www.w3.org/2000/svg" version="1.1" xmlns:xlink="http://www.w3.org/1999/xlink" xmlns:svgjs="http://svgjs.dev/svgjs" width="800" height="800" viewBox="0 0 800 800"><g transform="matrix(1,0,0,1,-0.17259475218668285,-0.172594752186626)"><svg xmlns="http://www.w3.org/2000/svg" version="1.1" xmlns:xlink="http://www.w3.org/1999/xlink" xmlns:svgjs="http://svgjs.com/svgjs" viewBox="0 0 343 343" data-background-color="#ffffff" preserveAspectRatio="xMidYMid meet" height="800" width="800"><defs></defs><g id="tight-bounds" transform="matrix(1,0,0,1,0.0740000000000407,0.07400000000001228)"><svg viewBox="0 0 342.85155851775386 342.85155851775386" height="342.85155851775386" width="342.85155851775386"><g><svg xmlns="http://www.w3.org/2000/svg" version="1.1" xmlns:xlink="http://www.w3.org/1999/xlink" xmlns:svgjs="http://svgjs.com/svgjs"></svg></g><g><svg viewBox="0 0 342.85155851775386 342.85155851775386" height="342.85155851775386" width="342.85155851775386"><g><path d="M0 171.426c0-94.676 76.75-171.426 171.426-171.426 94.676 0 171.426 76.75 171.426 171.426 0 94.676-76.75 171.426-171.426 171.426-94.676 0-171.426-76.75-171.426-171.426zM171.426 337.56c91.753 0 166.134-74.381 166.134-166.134 0-91.753-74.381-166.134-166.134-166.134-91.753 0-166.134 74.381-166.134 166.134 0 91.753 74.381 166.134 166.134 166.134z" data-fill-palette-color="tertiary" fill="#ff5c40" stroke="transparent"></path><ellipse rx="164.56874808852186" ry="164.56874808852186" cx="171.42577925887693" cy="171.42577925887693" fill="#ff5c40" stroke="transparent" stroke-width="0" fill-opacity="1" data-fill-palette-color="tertiary"></ellipse></g><g transform="matrix(1,0,0,1,64.84655864529837,94.60908624623424)"><svg viewBox="0 0 213.1584412271571 153.63338602528538" height="153.63338602528538" width="213.1584412271571"><g><svg viewBox="0 0 213.1584412271571 153.63338602528538" height="153.63338602528538" width="213.1584412271571"><g><svg viewBox="0 0 213.1584412271571 153.63338602528538" height="153.63338602528538" width="213.1584412271571"><g transform="matrix(1,0,0,1,0,94.95159602939322)"><svg viewBox="0 0 213.1584412271571 58.68178999589217" height="58.68178999589217" width="213.1584412271571"><g><svg viewBox="0 0 213.1584412271571 58.68178999589217" height="58.68178999589217" width="213.1584412271571"><g><svg viewBox="0 0 213.1584412271571 58.68178999589217" height="58.68178999589217" width="213.1584412271571"><g transform="matrix(1,0,0,1,0,0)"><svg width="213.1584412271571" viewBox="1.51 -38.16 139.93 38.529999999999994" height="58.68178999589217" data-palette-color="#ffffff"><path d="M14.92-5.37L14.92-5.37Q18.07-5.37 19.24-7.01L19.24-7.01 19.43-7.01 19.51-1.34Q18.31-0.15 15.06 0.24L15.06 0.24Q14.18 0.37 12.88 0.37 11.57 0.37 10.05-0.12 8.52-0.61 7.45-1.71L7.45-1.71Q5.22-3.98 5.22-8.81L5.22-8.81 5.22-19.9 1.54-19.9Q1.51-20.61 1.51-21.34L1.51-21.34 1.51-25.1Q1.51-25.51 1.54-25.51L1.54-25.51 5.22-25.51 5.22-32.47 11.21-32.47 11.21-25.51 17.92-25.51 17.92-19.9 11.21-19.9 11.21-9.94Q11.21-6.1 13.33-5.57L13.33-5.57Q14.01-5.37 14.92-5.37ZM29.17-28.83L23.68-32.79Q25.63-35.84 27.76-38.16L27.76-38.16 33.01-34.03Q31.96-32.74 31.05-31.49L31.05-31.49Q31.05-31.49 29.17-28.83L29.17-28.83ZM30.1-25.51L30.1-2.73Q30.1-0.63 30.2 0L30.2 0 24 0 24-25.51 30.1-25.51ZM56.37-8.33L56.93-2.37Q54.19 0.37 48.36 0.37L48.36 0.37Q42.7 0.37 39.11-3.08L39.11-3.08Q35.47-6.57 35.47-12.35L35.47-12.35Q35.47-18.24 39.06-22.02L39.06-22.02Q42.87-26 49.24-26L49.24-26Q53.75-26 56.81-24.02L56.81-24.02 55.83-17.77 55.66-17.8Q54.49-19.21 53.19-19.65L53.19-19.65Q51.09-20.39 48.99-20.39 46.89-20.39 45.7-19.85 44.5-19.31 43.65-18.36L43.65-18.36Q41.94-16.41 41.94-13.18L41.94-13.18Q41.94-7.47 45.89-5.71L45.89-5.71Q47.26-5.13 48.79-5.13 50.31-5.13 51.45-5.4 52.58-5.66 53.51-6.13L53.51-6.13Q55.49-7.1 56.2-8.4L56.2-8.4 56.37-8.33ZM68.38-5.83L68.38-3.22Q68.38-1.12 68.55 0L68.55 0 62.39 0 62.39-34.91 68.38-34.91 68.38-13.53 79.53-25.51 86.78-25.51 77.17-15.38 82.66-7.89Q84.44-5.05 85.34-3.74L85.34-3.74 86.96-1.46Q87.69-0.51 88.18 0L88.18 0 84.32 0Q82.17 0 80.63 0.37L80.63 0.37 73.01-10.77 68.38-5.83ZM97.74-17.16L97.74-7.06Q97.74-1.56 97.94 0L97.94 0 91.57 0 91.57-25.51 97.74-25.51 97.74-23.32Q101.09-26 104.6-26L104.6-26Q108.75-26 110.63-22.41L110.63-22.41Q112.51-24.34 113.76-24.95L113.76-24.95Q115.83-26 117.92-26 120.01-26 121.47-25.29 122.94-24.58 123.89-23.29L123.89-23.29Q125.82-20.68 125.82-16.11L125.82-16.11 125.82-6.4Q125.82-2.27 125.94-1.44 126.06-0.61 126.27-0.37 126.48-0.12 126.63 0.07L126.63 0.07 126.58 0.17Q124.62 0 123.7 0L123.7 0 121.87 0Q120.96 0 119.64 0.07L119.64 0.07 119.64-13.13Q119.64-18.85 117.89-19.92L117.89-19.92Q117.3-20.26 116.51-20.26 115.71-20.26 115.1-20.08 114.49-19.9 113.95-19.48L113.95-19.48Q113.05-18.82 111.9-16.89L111.9-16.89Q111.93-16.7 111.93-16.5 111.93-16.31 111.93-10.06 111.93-3.81 112.22 0L112.22 0Q110.15 0 108.69 0 107.24 0 105.92 0.07L105.92 0.07 105.92-13.16Q105.92-17.14 105.45-18.33 104.97-19.53 104.43-19.9 103.9-20.26 103.12-20.26L103.12-20.26Q99.89-20.26 97.74-17.16L97.74-17.16ZM137.61-28.83L132.12-32.79Q134.07-35.84 136.19-38.16L136.19-38.16 141.44-34.03Q140.39-32.74 139.49-31.49L139.49-31.49Q139.49-31.49 137.61-28.83L137.61-28.83ZM138.54-25.51L138.54-2.73Q138.54-0.63 138.63 0L138.63 0 132.43 0 132.43-25.51 138.54-25.51Z" opacity="1" transform="matrix(1,0,0,1,0,0)" fill="#ffffff" class="undefined-text-0" data-fill-palette-color="quaternary" id="text-0"></path></svg></g></svg></g></svg></g></svg></g><g transform="matrix(1,0,0,1,62.63847129942542,0)"><svg viewBox="0 0 87.88149862830628 81.09823377432298" height="81.09823377432298" width="87.88149862830628"><g><svg xmlns="http://www.w3.org/2000/svg" xmlns:xlink="http://www.w3.org/1999/xlink" version="1.1" x="0" y="0" viewBox="5.060778419644406 8.537204642681878 89.90201693767372 82.96279535731813" enable-background="new 0 0 100 100" xml:space="preserve" height="81.09823377432298" width="87.88149862830628" class="icon-icon-0" fill="#ffffff" data-fill-palette-color="quaternary" id="icon-0"><path d="M37.4 91.5c-1.6 0-3.1-0.6-4.2-1.7l-26.2-27c-2.5-2.3-2.6-6.2-0.2-8.7 2.3-2.5 6.2-2.6 8.7-0.2l19.2 13.7c1.1 1 2.8 0.8 3.7-0.4L83.9 11c2-2.7 5.9-3.3 8.6-1.2 2.7 2 3.3 5.9 1.2 8.6L42.3 89c-1.1 1.4-2.7 2.3-4.4 2.4C37.7 91.5 37.6 91.5 37.4 91.5z" fill="#ffffff" data-fill-palette-color="quaternary"></path></svg></g></svg></g><g></g></svg></g></svg></g></svg></g></svg></g></svg><rect width="342.85155851775386" height="342.85155851775386" fill="transparent" stroke="transparent"></rect></g></svg></g></svg>